# Blender v2.78 (sub 0) OBJ File: 'Mekanism_models.blend'
# www.blender.org
mtllib jetpack_armored.mtl
o jetpack_wings_r
v -0.286212 0.756421 0.312500
v -0.316442 0.673364 0.312500
v -0.146510 0.752604 0.312500
v -0.059635 0.862076 0.250000
v -0.286212 0.756421 0.250000
v -0.316442 0.673364 0.250000
v -0.146510 0.752604 0.250000
v -0.059635 0.862076 0.312500
v 0.329241 0.767567 0.285156
v 0.250000 0.937500 0.277344
v 0.329241 0.767567 0.277344
v 0.250000 0.937500 0.285156
v 0.027240 0.971548 0.343750
v -0.146510 0.752604 0.343750
v 0.250000 0.937500 0.343750
v 0.472760 0.903452 0.343750
v 0.027240 0.971548 0.218750
v -0.146510 0.752604 0.218750
v 0.472760 0.903452 0.218750
v 0.197173 1.050788 0.343750
v -0.316442 0.673364 0.285156
v -0.316442 0.673364 0.277344
v -0.373087 0.646950 0.277344
v -0.373087 0.646950 0.285156
v -0.320259 0.533662 0.277344
v -0.320259 0.533662 0.285156
v 0.419933 1.016741 0.218750
v 0.419933 1.016741 0.343750
v 0.250000 0.937500 0.218750
v 0.197173 1.050789 0.218750
v 0.302827 0.824212 0.343750
v 0.302827 0.824212 0.218750
vt 0.5625 0.3438
vt 0.5625 0.4375
vt 0.5938 0.4375
vt 0.5938 0.3438
vt 0.5938 0.2188
vt 0.5625 0.2188
vt 0.5000 0.3750
vt 0.5312 0.3750
vt 0.5312 0.2812
vt 0.5000 0.2812
vt 0.6250 0.3750
vt 0.6250 0.2812
vt 0.3750 0.1250
vt 0.4062 0.1250
vt 0.4062 0.0625
vt 0.3750 0.0625
vt 0.1562 0.5938
vt 0.1562 0.7188
vt 0.2188 0.7188
vt 0.2188 0.5938
vt 0.2188 0.5000
vt 0.1562 0.5000
vt 0.1562 0.9375
vt 0.2188 0.9375
vt 0.2812 0.7188
vt 0.2812 0.5000
vt 0.0938 0.5000
vt 0.0938 0.7188
vt 0.4375 0.0625
vt 0.0312 0.0625
vt 0.0312 0.1562
vt 0.3438 0.0625
vt 0.7500 0.1562
vt 0.7500 0.0625
vt 0.3750 0.0312
vt 0.4062 0.0312
vt 0.3750 0.4688
vt 0.4062 0.4688
vt 0.2188 0.4062
vt 0.1562 0.4062
vt 0.2812 0.4062
vt 0.0938 0.4062
vt 0.3438 0.5000
vt 0.3438 0.4062
vt 0.0312 0.4062
vt 0.0312 0.5000
vt 0.2188 0.3438
vt 0.1562 0.3438
vt 0.1562 0.1875
vt 0.1562 0.2500
vt 0.2188 0.2500
vt 0.2188 0.1875
vn -0.9397 0.3420 0.0000
vn -0.4226 0.9063 0.0000
vn 0.4226 -0.9063 0.0000
vn 0.0000 -0.0000 1.0000
vn 0.0000 0.0000 -1.0000
vn -0.9063 -0.4226 0.0000
vn -0.7833 0.6216 0.0000
vn 0.3388 -0.9408 0.0000
vn 0.1511 0.9885 0.0000
vn 0.9063 0.4226 0.0000
usemtl jetpack_wings
s off
f 5/1/1 6/2/1 2/3/1 1/4/1
f 5/1/2 1/4/2 8/5/2 4/6/2
f 2/7/3 6/8/3 7/9/3 3/10/3
f 1/4/4 2/11/4 3/12/4 8/5/4
f 4/6/5 7/9/5 6/8/5 5/1/5
f 25/13/6 26/14/6 24/15/6 23/16/6
f 17/17/7 18/18/7 14/19/7 13/20/7
f 17/17/2 13/20/2 20/21/2 30/22/2
f 14/19/3 18/18/3 29/23/3 15/24/3
f 13/20/4 14/25/4 15/26/4 20/21/4
f 30/22/5 29/27/5 18/28/5 17/17/5
f 26/14/4 21/29/4 24/15/4
f 10/30/5 11/31/5 22/32/5
f 21/29/4 9/33/4 12/34/4
f 9/33/4 21/29/4 26/14/4
f 22/35/2 23/16/2 24/15/2 21/36/2
f 11/37/8 9/38/8 26/14/8 25/13/8
f 11/31/5 25/13/5 22/32/5
f 20/21/9 28/39/9 27/40/9 30/22/9
f 20/21/4 15/26/4 28/41/4
f 30/22/5 27/42/5 29/27/5
f 15/26/4 31/43/4 16/44/4 28/41/4
f 27/42/5 19/45/5 32/46/5 29/27/5
f 28/39/10 16/47/10 19/48/10 27/40/10
f 29/49/6 32/50/6 31/51/6 15/52/6
f 19/48/3 16/47/3 31/51/3 32/50/3
f 23/16/5 22/32/5 25/13/5
o Guides
v 0.000000 -0.250000 0.000000
v 0.812500 -0.250000 0.000000
v 0.000000 0.000000 0.000000
v 0.812500 0.000000 0.000000
v 0.812500 -0.125000 0.000000
v 0.812500 -0.062500 0.000000
v 0.812500 -0.187500 0.000000
v 0.000000 -0.125000 0.000000
v 0.000000 -0.187500 0.000000
v 0.000000 -0.062500 0.000000
v 0.000000 -0.250000 -0.062500
v 0.000000 0.000000 -0.062500
v 0.000000 -0.125000 -0.062500
v 0.000000 -0.187500 -0.062500
v 0.000000 -0.062500 -0.062500
v 0.000000 -0.250000 -0.125000
v 0.000000 0.000000 -0.125000
v 0.000000 -0.125000 -0.125000
v 0.000000 -0.187500 -0.125000
v 0.000000 -0.062500 -0.125000
v 0.000000 -0.250000 -0.187500
v 0.000000 0.000000 -0.187500
v 0.000000 -0.125000 -0.187500
v 0.000000 -0.187500 -0.187500
v 0.000000 -0.062500 -0.187500
v 0.000000 -0.250000 -0.250000
v 0.000000 0.000000 -0.250000
v 0.000000 -0.125000 -0.250000
v 0.000000 -0.187500 -0.250000
v 0.000000 -0.062500 -0.250000
l 41 33
l 33 34
l 38 36
l 36 35
l 39 37
l 37 38
l 34 39
l 42 40
l 40 41
l 35 42
l 38 42
l 37 40
l 39 41
l 46 43
l 47 45
l 45 46
l 44 47
l 46 41
l 40 45
l 43 33
l 47 42
l 35 44
l 51 48
l 52 50
l 50 51
l 49 52
l 46 51
l 50 45
l 43 48
l 47 52
l 49 44
l 56 53
l 57 55
l 55 56
l 54 57
l 50 55
l 57 52
l 51 56
l 48 53
l 54 49
l 61 58
l 62 60
l 60 61
l 59 62
l 57 62
l 59 54
l 55 60
l 56 61
l 53 58
o jetpack_chestplate
v 0.750000 0.937500 0.750000
v 0.750000 0.750000 0.812500
v 0.250000 0.750000 0.812500
v 0.250000 1.000000 0.625000
v 0.750000 1.000000 0.625000
v 0.250000 0.937500 0.750000
v 0.562500 0.562500 0.687500
v 0.562500 0.375000 0.687500
v 0.687500 0.375000 0.687500
v 0.687500 0.437500 0.625000
v 0.562500 0.437500 0.625000
v 0.562500 0.312500 0.625000
v 0.687500 0.312500 0.625000
v 0.687500 0.562500 0.687500
v 0.625000 0.687500 0.750000
v 0.625000 0.437500 0.625000
v 0.750000 0.437500 0.625000
v 0.750000 0.687500 0.625000
v 0.625000 0.687500 0.625000
v 0.687500 0.695312 0.757812
v 0.687500 0.562500 0.691406
v 0.625000 0.562500 0.691406
v 0.687500 0.695312 0.695312
v 0.687500 0.562500 0.628906
v 0.625000 0.562500 0.628906
v 0.437500 0.562500 0.687500
v 0.437500 0.375000 0.687500
v 0.312500 0.375000 0.687500
v 0.312500 0.437500 0.625000
v 0.437500 0.437500 0.625000
v 0.437500 0.312500 0.625000
v 0.312500 0.312500 0.625000
v 0.312500 0.562500 0.687500
v 0.375000 0.437500 0.625000
v 0.250000 0.437500 0.625000
v 0.250000 0.687500 0.625000
v 0.375000 0.695312 0.757812
v 0.375000 0.562500 0.691406
v 0.312500 0.562500 0.691406
v 0.312500 0.695312 0.695312
v 0.375000 0.695312 0.695312
v 0.375000 0.562500 0.628906
v 0.312500 0.562500 0.628906
v 0.312500 0.695312 0.757812
v 0.625000 0.500000 0.750000
v 0.375000 0.500000 0.750000
v 0.250000 0.687500 0.750000
v 0.375000 0.750000 0.812500
v 0.625000 0.750000 0.812500
v 0.750000 0.687500 0.750000
v 0.625000 1.000000 0.625000
v 0.375000 0.687500 0.625000
v 0.375000 1.000000 0.625000
v 0.625000 0.937500 0.750000
v 0.375000 0.937500 0.750000
v 0.375000 0.687500 0.750000
v 0.625000 0.695312 0.695312
v 0.625000 0.695312 0.757812
vt 0.6875 0.5625
vt 0.7188 0.6562
vt 0.6875 0.6875
vt 0.6250 0.3750
vt 0.5625 0.3750
vt 0.5625 0.3438
vt 0.6250 0.3438
vt 0.5625 0.5312
vt 0.5625 0.4688
vt 0.6250 0.4688
vt 0.6250 0.5312
vt 0.4375 0.4688
vt 0.3750 0.4688
vt 0.3750 0.3750
vt 0.4375 0.3750
vt 0.7188 0.3125
vt 0.7188 0.2500
vt 0.7500 0.2812
vt 0.7500 0.3750
vt 0.8125 0.3750
vt 0.8125 0.2812
vt 0.8438 0.2500
vt 0.8438 0.3125
vt 0.7500 0.2500
vt 0.8125 0.2500
vt 0.8125 0.1875
vt 0.7500 0.1875
vt 0.3438 0.2500
vt 0.3438 0.3438
vt 0.2812 0.2188
vt 0.6250 0.8125
vt 0.6250 0.6875
vt 0.6250 0.3438
vt 0.6250 0.2188
vt 0.5625 0.2188
vt 0.5625 0.3438
vt 0.5625 0.8125
vt 0.5625 0.6875
vt 0.7812 0.5312
vt 0.7500 0.5312
vt 0.7812 0.4375
vt 0.8125 0.4375
vt 0.7500 0.4375
vt 0.7188 0.4375
vt 0.7188 0.4062
vt 0.7500 0.4062
vt 0.7188 0.5312
vt 0.2812 0.3125
vt 0.2500 0.3750
vt 0.2500 0.2812
vt 0.2812 0.2500
vt 0.1875 0.3750
vt 0.1562 0.3125
vt 0.1562 0.2500
vt 0.1875 0.2812
vt 0.1875 0.2500
vt 0.2500 0.2500
vt 0.1875 0.1875
vt 0.2500 0.1875
vt 0.6562 0.2500
vt 0.7188 0.2188
vt 0.6562 0.3438
vt 0.3125 0.6875
vt 0.3750 0.6875
vt 0.3750 0.8125
vt 0.4375 0.3438
vt 0.3750 0.3438
vt 0.3750 0.2188
vt 0.4375 0.2188
vt 0.4375 0.6875
vt 0.4375 0.8125
vt 0.3125 0.5312
vt 0.2812 0.5312
vt 0.3125 0.4375
vt 0.3438 0.4375
vt 0.2500 0.5312
vt 0.2188 0.5312
vt 0.1875 0.4375
vt 0.2188 0.4375
vt 0.2812 0.4375
vt 0.2500 0.4375
vt 0.2500 0.4062
vt 0.2812 0.4062
vt 0.5625 0.2500
vt 0.4375 0.2500
vt 0.4375 0.1875
vt 0.5625 0.1875
vt 0.3125 0.5625
vt 0.2812 0.6562
vt 0.4375 0.5312
vt 0.3750 0.5312
vt 0.6875 0.5312
vt 0.6562 0.4375
vt 0.6875 0.4375
vn 1.0000 0.0000 0.0000
vn 0.0000 -0.7071 0.7071
vn 0.0000 0.8944 0.4472
vn 0.0000 0.3162 0.9487
vn -1.0000 0.0000 0.0000
vn 0.0000 0.0000 1.0000
vn 0.0000 0.0000 -1.0000
vn 0.0000 -0.4472 0.8944
vn 0.0000 -1.0000 0.0000
vn 0.0000 -0.8944 0.4472
usemtl jetpack_chestplate
s off
f 63/53/11 64/54/11 112/55/11
f 64/56/12 111/57/12 77/58/12 112/59/12
f 113/60/13 116/61/13 63/62/13 67/63/13
f 117/64/14 68/65/14 65/66/14 110/67/14
f 73/68/15 74/69/15 70/70/15 69/71/15
f 76/72/11 71/73/11 75/74/11 72/75/11
f 70/70/12 74/76/12 75/77/12 71/73/12
f 69/71/16 70/70/16 71/73/16 76/72/16
f 72/78/17 75/77/17 74/76/17 73/79/17
f 108/80/15 118/81/15 96/82/15
f 112/55/11 79/83/11 80/84/11
f 77/85/18 78/86/18 79/87/18 112/88/18
f 80/84/17 79/83/17 78/89/17 81/90/17
f 85/91/11 82/92/11 83/93/11 86/94/11
f 83/95/19 84/96/19 87/97/19 86/98/19
f 82/92/18 120/99/18 84/96/18 83/95/18
f 92/100/11 88/101/11 89/102/11 93/103/11
f 95/104/15 91/105/15 94/106/15 90/107/15
f 89/102/12 90/107/12 94/108/12 93/109/12
f 88/101/16 95/104/16 90/107/16 89/102/16
f 91/110/17 92/111/17 93/109/17 94/108/17
f 107/112/11 78/113/11 77/114/11
f 109/115/15 98/116/15 97/117/15
f 118/118/18 109/119/18 97/120/18 96/121/18
f 98/116/17 114/122/17 96/123/17 97/117/17
f 103/124/11 99/125/11 100/126/11 104/127/11
f 106/128/15 102/129/15 105/130/15 101/131/15
f 100/132/19 101/133/19 105/134/19 104/135/19
f 99/125/18 106/128/18 101/133/18 100/132/18
f 107/136/20 108/137/20 96/138/20 78/139/20
f 77/58/16 118/118/16 108/137/16 107/136/16
f 114/122/17 81/90/17 78/89/17 96/123/17
f 113/60/17 67/63/17 80/84/17 81/90/17
f 68/140/15 109/115/15 65/141/15
f 116/61/14 117/64/14 110/67/14 111/57/14
f 110/67/12 65/66/12 109/119/12 118/118/12
f 63/62/14 116/61/14 111/57/14 64/56/14
f 67/63/11 63/53/11 112/55/11 80/84/11
f 115/142/17 113/60/17 81/90/17 114/122/17
f 111/57/12 110/67/12 118/118/12 77/58/12
f 66/143/17 115/142/17 114/122/17 98/116/17
f 68/140/15 66/143/15 98/116/15 109/115/15
f 66/143/13 68/65/13 117/64/13 115/142/13
f 115/142/13 117/64/13 116/61/13 113/60/13
f 120/99/15 119/144/15 87/145/15 84/146/15
o jetpack_armored
v 0.687500 0.468750 0.311198
v 0.687500 0.406250 0.311198
v 0.312500 0.406250 0.311198
v 0.312500 0.468750 0.186198
v 0.687500 0.468750 0.186198
v 0.687500 0.406250 0.186198
v 0.312500 0.406250 0.186198
v 0.312500 0.468750 0.311198
v 0.750000 0.437500 0.375000
v 0.250000 0.437500 0.375000
v 0.250000 0.687500 0.125000
v 0.750000 0.437500 0.160156
v 0.250000 0.437500 0.160156
v 0.687500 0.562500 0.203125
v 0.687500 0.500000 0.203125
v 0.625000 0.500000 0.203125
v 0.625000 0.562500 0.140625
v 0.687500 0.562500 0.140625
v 0.687500 0.500000 0.140625
v 0.625000 0.500000 0.140625
v 0.625000 0.562500 0.203125
v 0.562500 0.562500 0.203125
v 0.562500 0.500000 0.203125
v 0.500000 0.500000 0.203125
v 0.500000 0.562500 0.140625
v 0.562500 0.562500 0.140625
v 0.562500 0.500000 0.140625
v 0.500000 0.500000 0.140625
v 0.500000 0.562500 0.203125
v 0.375000 0.562500 0.203125
v 0.375000 0.500000 0.203125
v 0.312500 0.500000 0.203125
v 0.312500 0.562500 0.140625
v 0.375000 0.562500 0.140625
v 0.375000 0.500000 0.140625
v 0.312500 0.500000 0.140625
v 0.312500 0.562500 0.203125
v 0.750000 0.687500 0.375000
v 0.250000 0.687500 0.375000
v 0.250000 0.812500 0.125000
v 0.750000 0.687500 0.125000
v 0.250000 0.687500 0.187500
v 0.250000 0.812500 0.187500
v 0.750000 0.687500 0.187500
v 0.750000 0.812500 0.187500
v 0.687500 0.988281 0.191406
v 0.687500 0.929688 0.171875
v 0.562500 0.929688 0.171875
v 0.562500 0.992188 0.179688
v 0.687500 0.992188 0.179688
v 0.687500 0.933594 0.160156
v 0.562500 0.933594 0.160156
v 0.562500 0.988281 0.191406
v 0.687500 0.906250 0.164062
v 0.687500 0.847656 0.144531
v 0.562500 0.847656 0.144531
v 0.562500 0.910156 0.152344
v 0.687500 0.910156 0.152344
v 0.687500 0.851562 0.132812
v 0.562500 0.851562 0.132812
v 0.562500 0.906250 0.164062
v 0.750000 1.062500 0.250000
v 0.250000 1.062500 0.187500
v 0.750000 1.062500 0.187500
v 0.750000 0.812500 0.125000
v 0.250000 1.062500 0.250000
v 0.750000 0.937500 0.375000
v 0.750000 0.812500 0.375000
v 0.250000 0.812500 0.375000
v 0.250000 1.000000 0.250000
v 0.250000 0.937500 0.375000
v 0.750000 1.000000 0.187500
v 0.250000 1.000000 0.187500
v 0.750000 1.000000 0.250000
v 0.250000 0.437500 0.222656
v 0.750000 0.437500 0.222656
v 0.914579 0.743189 -0.008525
v 0.928348 0.636668 0.055418
v 0.578325 0.786086 0.379699
v 0.476362 0.838914 0.245301
v 0.826385 0.689496 -0.078980
v 0.840154 0.582975 -0.015037
v 0.490131 0.732393 0.309244
v 0.564556 0.892607 0.315756
v 0.914044 0.791414 0.010837
v 0.934697 0.631633 0.106752
v 0.803438 0.687665 0.228357
v 0.650494 0.766905 0.026760
v 0.781753 0.710874 -0.094845
v 0.802406 0.551093 0.001070
v 0.671148 0.607124 0.122675
v 0.782785 0.847446 0.132442
v 0.085421 0.743189 -0.008525
v 0.071652 0.636668 0.055418
v 0.421675 0.786086 0.379699
v 0.523638 0.838914 0.245301
v 0.173615 0.689496 -0.078980
v 0.159846 0.582975 -0.015037
v 0.509869 0.732393 0.309244
v 0.435444 0.892607 0.315756
v 0.085956 0.791414 0.010837
v 0.065303 0.631633 0.106752
v 0.196561 0.687665 0.228357
v 0.349506 0.766905 0.026760
v 0.218247 0.710874 -0.094845
v 0.197594 0.551093 0.001070
v 0.328852 0.607124 0.122675
v 0.217215 0.847446 0.132442
vt 0.0625 0.4375
vt 0.1250 0.4375
vt 0.1250 0.4688
vt 0.0625 0.4688
vt 0.1250 0.6875
vt 0.0625 0.6875
vt 0.0625 0.6562
vt 0.1250 0.6562
vt 0.1562 0.4688
vt 0.1562 0.6562
vt 0.0312 0.6562
vt 0.0312 0.4688
vt 0.2188 0.7500
vt 0.1875 0.7500
vt 0.1875 0.6250
vt 0.2188 0.6250
vt 0.5625 0.5312
vt 0.3125 0.5312
vt 0.3125 0.5000
vt 0.5625 0.5000
vt 0.5625 0.7500
vt 0.3125 0.7500
vt 0.3125 0.6250
vt 0.5625 0.6250
vt 0.9375 0.7500
vt 0.6875 0.7500
vt 0.6875 0.6250
vt 0.9375 0.6250
vt 0.6250 0.5625
vt 0.5938 0.5625
vt 0.5938 0.5312
vt 0.6250 0.5312
vt 0.6875 0.5625
vt 0.6562 0.5625
vt 0.6562 0.5312
vt 0.6875 0.5312
vt 0.6562 0.5938
vt 0.6250 0.5938
vt 0.6250 0.5000
vt 0.6562 0.5000
vt 0.7500 0.5625
vt 0.7188 0.5625
vt 0.7188 0.5312
vt 0.7500 0.5312
vt 0.8125 0.5625
vt 0.7812 0.5625
vt 0.7812 0.5312
vt 0.8125 0.5312
vt 0.7812 0.5938
vt 0.7500 0.5938
vt 0.7500 0.5000
vt 0.7812 0.5000
vt 0.8750 0.5625
vt 0.8438 0.5625
vt 0.8438 0.5312
vt 0.8750 0.5312
vt 0.9375 0.5625
vt 0.9062 0.5625
vt 0.9062 0.5312
vt 0.9375 0.5312
vt 0.9062 0.5938
vt 0.8750 0.5938
vt 0.8750 0.5000
vt 0.9062 0.5000
vt 0.2188 0.8125
vt 0.1875 0.8125
vt 0.5625 0.8125
vt 0.3125 0.8125
vt 0.9375 0.8125
vt 0.6875 0.8125
vt 0.6562 0.8125
vt 0.6562 0.7500
vt 0.0625 0.9062
vt 0.0312 0.9062
vt 0.0312 0.8750
vt 0.0625 0.8750
vt 0.1562 0.9062
vt 0.1250 0.9062
vt 0.1250 0.8750
vt 0.1562 0.8750
vt 0.1250 0.9375
vt 0.0625 0.9375
vt 0.0625 0.8438
vt 0.1250 0.8438
vt 0.0625 0.7812
vt 0.0312 0.7812
vt 0.0312 0.7500
vt 0.0625 0.7500
vt 0.1562 0.7812
vt 0.1250 0.7812
vt 0.1250 0.7500
vt 0.1562 0.7500
vt 0.1250 0.8125
vt 0.0625 0.8125
vt 0.0625 0.7188
vt 0.1250 0.7188
vt 0.6875 0.9375
vt 0.6875 0.9062
vt 0.9375 0.9062
vt 0.9375 0.9375
vt 0.6250 0.9062
vt 0.5625 0.8750
vt 0.3125 0.8750
vt 0.2500 0.9062
vt 0.2500 0.9375
vt 0.2188 0.9375
vt 0.2188 0.9062
vt 0.6562 0.9375
vt 0.6250 0.9375
vt 0.6562 0.9062
vt 0.5625 0.9688
vt 0.3125 0.9688
vt 0.3125 0.9375
vt 0.5625 0.9375
vt 0.9375 0.9688
vt 0.6875 0.9688
vt 0.6562 0.6250
vt 0.3438 0.4062
vt 0.2812 0.4062
vt 0.2812 0.3438
vt 0.3438 0.3438
vt 0.2812 0.4688
vt 0.1562 0.4688
vt 0.1562 0.4062
vt 0.3438 0.2812
vt 0.4688 0.2812
vt 0.4688 0.3438
vt 0.1562 0.3438
vt 0.4688 0.4062
vt 0.3125 0.2188
vt 0.2188 0.2188
vt 0.2188 0.1250
vt 0.3125 0.1250
vt 0.1250 0.2188
vt 0.0312 0.2188
vt 0.0312 0.1250
vt 0.1250 0.1250
vt 0.3125 0.3125
vt 0.2188 0.3125
vt 0.2188 0.0312
vt 0.3125 0.0312
vt 0.4062 0.2188
vt 0.4062 0.1250
vt 0.6562 0.4062
vt 0.6562 0.3438
vt 0.7188 0.3438
vt 0.7188 0.4062
vt 0.7188 0.4688
vt 0.8438 0.4062
vt 0.8438 0.4688
vt 0.6562 0.2812
vt 0.5312 0.3438
vt 0.5312 0.2812
vt 0.8438 0.3438
vt 0.5312 0.4062
vt 0.6875 0.2188
vt 0.6875 0.1250
vt 0.7812 0.1250
vt 0.7812 0.2188
vt 0.8750 0.2188
vt 0.8750 0.1250
vt 0.9688 0.1250
vt 0.9688 0.2188
vt 0.7812 0.3125
vt 0.6875 0.3125
vt 0.6875 0.0312
vt 0.7812 0.0312
vt 0.5938 0.2188
vt 0.5938 0.1250
vn 1.0000 0.0000 0.0000
vn -1.0000 0.0000 0.0000
vn 0.0000 -1.0000 0.0000
vn 0.0000 0.0000 1.0000
vn 0.0000 0.0000 -1.0000
vn 0.0000 -0.1393 -0.9903
vn 0.0000 1.0000 0.0000
vn 0.0000 0.9487 0.3162
vn 0.0000 -0.9487 -0.3162
vn 0.0000 0.3162 -0.9487
vn 0.0000 0.8944 0.4472
vn 0.7000 -0.2988 -0.6486
vn -0.1102 0.8522 -0.5115
vn 0.1102 -0.8522 0.5115
vn 0.7056 0.4295 0.5636
vn -0.7056 -0.4295 -0.5636
vn -0.7000 0.2988 0.6486
vn -0.7000 -0.2988 -0.6486
vn 0.1102 0.8522 -0.5115
vn -0.1102 -0.8522 0.5115
vn -0.7056 0.4295 0.5636
vn 0.7056 -0.4295 -0.5636
vn 0.7000 0.2988 0.6486
usemtl jetpack_base
s off
f 125/147/21 121/148/21 122/149/21 126/150/21
f 128/151/22 124/152/22 127/153/22 123/154/22
f 122/149/23 123/154/23 127/153/23 126/150/23
f 121/155/24 128/156/24 123/154/24 122/149/24
f 124/157/25 125/158/25 126/150/25 127/153/25
f 162/159/22 131/160/22 133/161/22 195/162/22
f 196/163/23 195/164/23 133/165/23 132/166/23
f 158/167/24 159/168/24 130/169/24 129/170/24
f 131/171/26 161/172/26 132/173/26 133/174/26
f 138/175/21 134/176/21 135/177/21 139/178/21
f 141/179/22 137/180/22 140/181/22 136/182/22
f 138/175/27 137/180/27 141/183/27 134/184/27
f 135/185/23 136/186/23 140/181/23 139/178/23
f 137/180/25 138/175/25 139/178/25 140/181/25
f 146/187/21 142/188/21 143/189/21 147/190/21
f 149/191/22 145/192/22 148/193/22 144/194/22
f 146/187/27 145/192/27 149/195/27 142/196/27
f 143/197/23 144/198/23 148/193/23 147/190/23
f 145/192/25 146/187/25 147/190/25 148/193/25
f 154/199/21 150/200/21 151/201/21 155/202/21
f 157/203/22 153/204/22 156/205/22 152/206/22
f 154/199/27 153/204/27 157/207/27 150/208/27
f 151/209/23 152/210/23 156/205/23 155/202/23
f 153/204/25 154/199/25 155/202/25 156/205/25
f 163/211/22 160/212/22 131/160/22 162/159/22
f 188/213/24 189/214/24 159/168/24 158/167/24
f 160/215/25 185/216/25 161/172/25 131/171/25
f 189/214/22 163/211/22 162/159/22 159/168/22
f 185/216/21 165/217/21 164/218/21 161/172/21
f 188/213/21 158/167/21 164/218/21 165/217/21
f 170/219/21 166/220/21 167/221/21 171/222/21
f 173/223/22 169/224/22 172/225/22 168/226/22
f 170/219/28 169/224/28 173/227/28 166/228/28
f 167/229/29 168/230/29 172/225/29 171/222/29
f 169/224/30 170/219/30 171/222/30 172/225/30
f 178/231/21 174/232/21 175/233/21 179/234/21
f 181/235/22 177/236/22 180/237/22 176/238/22
f 178/231/28 177/236/28 181/239/28 174/240/28
f 175/241/29 176/242/29 180/237/29 179/234/29
f 177/236/30 178/231/30 179/234/30 180/237/30
f 184/243/25 192/244/25 193/245/25 183/246/25
f 194/247/21 187/248/21 188/213/21 165/217/21
f 191/249/22 190/250/22 163/211/22 189/214/22
f 193/245/30 192/244/30 185/216/30 160/215/30
f 186/251/22 183/252/22 193/253/22 190/250/22
f 190/250/22 193/253/22 160/212/22 163/211/22
f 184/254/21 182/255/21 194/247/21 192/256/21
f 182/257/24 186/258/24 190/259/24 194/260/24
f 192/256/21 194/247/21 165/217/21 185/216/21
f 191/249/24 189/214/24 188/213/24 187/248/24
f 194/260/31 190/259/31 191/249/31 187/248/31
f 184/243/27 183/246/27 186/261/27 182/262/27
f 129/170/23 130/169/23 195/164/23 196/163/23
f 159/168/22 162/159/22 195/162/22 130/169/22
f 161/172/21 164/218/21 196/263/21 132/173/21
f 164/218/21 158/167/21 129/170/21 196/263/21
f 201/264/32 197/265/32 198/266/32 202/267/32
f 201/268/33 200/269/33 204/270/33 197/265/33
f 198/271/34 199/272/34 203/273/34 202/267/34
f 197/265/35 204/270/35 199/274/35 198/266/35
f 200/275/36 201/264/36 202/267/36 203/273/36
f 209/276/32 205/277/32 206/278/32 210/279/32
f 212/280/37 208/281/37 211/282/37 207/283/37
f 209/276/33 208/284/33 212/285/33 205/277/33
f 206/278/34 207/286/34 211/287/34 210/279/34
f 205/277/35 212/280/35 207/283/35 206/278/35
f 208/288/36 209/276/36 210/279/36 211/289/36
f 217/290/38 218/291/38 214/292/38 213/293/38
f 217/294/39 213/293/39 220/295/39 216/296/39
f 214/297/40 218/291/40 219/298/40 215/299/40
f 213/293/41 214/292/41 215/300/41 220/295/41
f 216/301/42 219/298/42 218/291/42 217/290/42
f 225/302/38 226/303/38 222/304/38 221/305/38
f 228/306/43 223/307/43 227/308/43 224/309/43
f 225/302/39 221/305/39 228/310/39 224/311/39
f 222/304/40 226/303/40 227/312/40 223/313/40
f 221/305/41 222/304/41 223/307/41 228/306/41
f 224/314/42 227/315/42 226/303/42 225/302/42
o jetpack_wings_l
v 1.286212 0.756421 0.312500
v 1.316442 0.673364 0.312500
v 1.146510 0.752604 0.312500
v 1.059635 0.862076 0.250000
v 1.286212 0.756421 0.250000
v 1.316442 0.673364 0.250000
v 1.146510 0.752604 0.250000
v 1.059635 0.862076 0.312500
v 0.670759 0.767567 0.285156
v 0.750000 0.937500 0.277344
v 0.670759 0.767567 0.277344
v 0.750000 0.937500 0.285156
v 0.972760 0.971548 0.343750
v 1.146510 0.752604 0.343750
v 0.750000 0.937500 0.343750
v 0.527240 0.903452 0.343750
v 0.972760 0.971548 0.218750
v 1.146510 0.752604 0.218750
v 0.527240 0.903452 0.218750
v 0.802827 1.050789 0.343750
v 1.316442 0.673364 0.285156
v 1.316442 0.673364 0.277344
v 1.373087 0.646950 0.277344
v 1.373087 0.646950 0.285156
v 1.320259 0.533661 0.277344
v 1.320259 0.533661 0.285156
v 0.580067 1.016741 0.218750
v 0.580067 1.016741 0.343750
v 0.750000 0.937500 0.218750
v 0.802827 1.050789 0.218750
v 0.697173 0.824212 0.343750
v 0.697173 0.824212 0.218750
vt 0.4375 0.6562
vt 0.4062 0.6562
vt 0.4062 0.5625
vt 0.4375 0.5625
vt 0.4375 0.7812
vt 0.4062 0.7812
vt 0.5000 0.6250
vt 0.5000 0.7188
vt 0.4688 0.7188
vt 0.4688 0.6250
vt 0.3750 0.7188
vt 0.3750 0.6250
vt 0.6250 0.8750
vt 0.6250 0.9375
vt 0.5938 0.9375
vt 0.5938 0.8750
vt 0.8438 0.4062
vt 0.7812 0.4062
vt 0.7812 0.2812
vt 0.8438 0.2812
vt 0.8438 0.5000
vt 0.7812 0.5000
vt 0.7812 0.0625
vt 0.8438 0.0625
vt 0.7188 0.5000
vt 0.7188 0.2812
vt 0.9062 0.2812
vt 0.9062 0.5000
vt 0.5625 0.9375
vt 0.9688 0.9375
vt 0.6562 0.9375
vt 0.9688 0.8438
vt 0.2500 0.9375
vt 0.2500 0.8438
vt 0.6250 0.9688
vt 0.5938 0.9688
vt 0.6250 0.5312
vt 0.5938 0.5312
vt 0.8438 0.5938
vt 0.7812 0.5938
vt 0.7188 0.5938
vt 0.9062 0.5938
vt 0.6562 0.5938
vt 0.6562 0.5000
vt 0.9688 0.5000
vt 0.9688 0.5938
vt 0.8438 0.6562
vt 0.7812 0.6562
vt 0.8438 0.8125
vt 0.7812 0.8125
vt 0.7812 0.7500
vt 0.8438 0.7500
vn 0.9397 0.3420 0.0000
vn 0.4226 0.9063 0.0000
vn -0.4226 -0.9063 0.0000
vn 0.0000 0.0000 1.0000
vn 0.0000 0.0000 -1.0000
vn 0.9063 -0.4226 0.0000
vn 0.7833 0.6216 0.0000
vn -0.3388 -0.9408 0.0000
vn -0.1511 0.9885 0.0000
vn -0.9063 0.4226 0.0000
usemtl jetpack_wings
s off
f 233/316/44 229/317/44 230/318/44 234/319/44
f 233/316/45 232/320/45 236/321/45 229/317/45
f 230/322/46 231/323/46 235/324/46 234/325/46
f 229/317/47 236/321/47 231/326/47 230/327/47
f 232/320/48 233/316/48 234/325/48 235/324/48
f 253/328/49 251/329/49 252/330/49 254/331/49
f 245/332/50 241/333/50 242/334/50 246/335/50
f 245/332/45 258/336/45 248/337/45 241/333/45
f 242/334/46 243/338/46 257/339/46 246/335/46
f 241/333/47 248/337/47 243/340/47 242/341/47
f 258/336/48 245/332/48 246/342/48 257/343/48
f 254/331/47 252/330/47 249/344/47
f 238/345/48 250/346/48 239/347/48
f 249/344/47 240/348/47 237/349/47
f 237/349/47 254/331/47 249/344/47
f 250/350/45 249/351/45 252/330/45 251/329/45
f 239/352/51 253/328/51 254/331/51 237/353/51
f 239/347/48 250/346/48 253/328/48
f 248/337/52 258/336/52 255/354/52 256/355/52
f 248/337/47 256/356/47 243/340/47
f 258/336/48 257/343/48 255/357/48
f 243/340/47 256/356/47 244/358/47 259/359/47
f 255/357/48 257/343/48 260/360/48 247/361/48
f 256/355/53 255/354/53 247/362/53 244/363/53
f 257/364/49 243/365/49 259/366/49 260/367/49
f 247/362/46 260/367/46 259/366/46 244/363/46
f 251/329/48 253/328/48 250/346/48
