# Blender v2.78 (sub 0) OBJ File: 'lever_slide.blend'
# www.blender.org
mtllib lever_slide.mtl
o Cube
v 0.375000 0.375000 0.625000
v 0.375000 0.375000 0.375000
v 0.625000 0.375000 0.375000
v 0.625000 0.375000 0.625000
v 0.375000 0.625000 0.625000
v 0.375000 0.625000 0.375000
v 0.625000 0.625000 0.375000
v 0.625000 0.625000 0.625000
v 0.437500 0.375000 0.562500
v 0.437500 0.375000 0.437500
v 0.562500 0.375000 0.562500
v 0.562500 0.375000 0.437500
v 0.437500 0.125000 0.562500
v 0.437500 0.125000 0.437500
v 0.562500 0.125000 0.562500
v 0.562500 0.125000 0.437500
vt 0.6250 0.6250
vt 0.5625 0.4375
vt 0.6250 0.3750
vt 0.3750 0.6250
vt 0.6250 0.3750
vt 0.6250 0.6250
vt 0.3750 0.3750
vt 0.6250 0.6250
vt 0.3750 0.3750
vt 0.6250 0.3750
vt 0.6250 0.3750
vt 0.3750 0.3750
vt 0.3750 0.3750
vt 0.6250 0.6250
vt 0.3750 0.6250
vt 0.4375 0.3750
vt 0.5625 0.1250
vt 0.5625 0.3750
vt 0.4375 0.5625
vt 0.3750 0.6250
vt 0.5625 0.5625
vt 0.4375 0.4375
vt 0.4375 0.3750
vt 0.5625 0.1250
vt 0.5625 0.3750
vt 0.4375 0.3750
vt 0.5625 0.1250
vt 0.5625 0.3750
vt 0.4375 0.3750
vt 0.5625 0.1250
vt 0.5625 0.3750
vt 0.3750 0.3750
vt 0.3750 0.6250
vt 0.3750 0.6250
vt 0.6250 0.6250
vt 0.6250 0.3750
vt 0.4375 0.1250
vt 0.4375 0.1250
vt 0.4375 0.1250
vt 0.4375 0.1250
vn 0.0000 -1.0000 0.0000
vn 0.0000 1.0000 0.0000
vn -1.0000 -0.0000 0.0000
vn 0.0000 -0.0000 -1.0000
vn 1.0000 0.0000 0.0000
vn -0.0000 0.0000 1.0000
usemtl slide
f 2/1/1 9/2/1 1/3/1
f 8/4/2 6/5/2 5/6/2
f 5/6/3 2/7/3 1/3/3
f 6/8/4 3/9/4 2/10/4
f 3/11/5 8/4/5 4/12/5
f 1/13/6 8/14/6 5/15/6
f 11/16/5 16/17/5 12/18/5
f 4/12/1 12/19/1 3/20/1
f 3/20/1 10/21/1 2/1/1
f 1/3/1 11/22/1 4/12/1
f 9/23/6 15/24/6 11/25/6
f 12/26/4 14/27/4 10/28/4
f 10/29/3 13/30/3 9/31/3
f 2/1/1 10/21/1 9/2/1
f 8/4/2 7/32/2 6/5/2
f 5/6/3 6/33/3 2/7/3
f 6/8/4 7/34/4 3/9/4
f 3/11/5 7/35/5 8/4/5
f 1/13/6 4/36/6 8/14/6
f 11/16/5 15/37/5 16/17/5
f 4/12/1 11/22/1 12/19/1
f 3/20/1 12/19/1 10/21/1
f 1/3/1 9/2/1 11/22/1
f 9/23/6 13/38/6 15/24/6
f 12/26/4 16/39/4 14/27/4
f 10/29/3 14/40/3 13/30/3
